<svg xmlns="http://www.w3.org/2000/svg" viewBox="0 0 96 96" width="96" height="96" role="img" aria-label="たまにたまヨガ">
  <defs>
    <clipPath id="clip"><circle cx="48" cy="48" r="48"/></clipPath>
    <radialGradient id="gold" cx="50%" cy="36%" r="70%">
      <stop offset="0" stop-color="#fff3a8"/>
      <stop offset="0.48" stop-color="#ffc538"/>
      <stop offset="1" stop-color="#ef8f12"/>
    </radialGradient>
    <pattern id="motif" width="18" height="18" patternUnits="userSpaceOnUse" patternTransform="rotate(-22)">
      <path d="M2 9c4-8 10-8 14 0-4 8-10 8-14 0Z" fill="none" stroke="#fff1a7" stroke-width="1.8" opacity=".42"/>
      <circle cx="4" cy="4" r="1.1" fill="#fff6bf" opacity=".45"/>
      <circle cx="13" cy="13" r="1.3" fill="#fff6bf" opacity=".36"/>
    </pattern>
    <filter id="soft" x="-10%" y="-10%" width="120%" height="120%">
      <feDropShadow dx="0" dy="1" stdDeviation="1" flood-color="#5b1d09" flood-opacity=".22"/>
    </filter>
  </defs>
  <g clip-path="url(#clip)">
    <circle cx="48" cy="48" r="48" fill="url(#gold)"/>
    <rect width="96" height="96" fill="url(#motif)"/>
    <g fill="none" stroke="#3a160d" stroke-linecap="round" stroke-linejoin="round" filter="url(#soft)">
      <path d="M31 96c1-16 4-30 11-41" fill="#f48a2a" stroke-width="2.5"/>
      <path d="M65 96c-1-16-5-30-12-41" fill="#f5a044" stroke-width="2.5"/>
      <path d="M38 34c-3 6-7 12-13 17 4 8 15 11 23 11s19-3 23-11c-6-5-10-11-13-17Z" fill="#ffecc9" stroke-width="2.7"/>
      <path d="M30 30c-2 13-3 24 2 34 4-11 8-19 13-26" fill="#ffb340" stroke-width="2.8"/>
      <path d="M66 30c3 16 1 27-3 38-5-15-8-23-14-31" fill="#ffd075" stroke-width="2.8"/>
      <path d="M27 8c16-10 34-7 44 9 7 12 6 28-4 39 1-15-5-26-18-36-7 8-15 13-25 15 2-9 5-18 3-27Z" fill="#fff0be" stroke-width="3"/>
      <path d="M42 18c-1 11-5 20-13 27" stroke-width="2.3"/>
      <path d="M50 17c3 11 9 20 17 28" stroke-width="2.3"/>
      <path d="M58 15c2 16 2 29-5 42" stroke-width="2.3"/>
      <path d="M35 17c2 12 1 23-5 35" stroke-width="2.3"/>
      <path d="M40 39c1 8 4 14 8 19 4-5 7-11 8-19" fill="#ffecc9" stroke-width="2.7"/>
      <path d="M40 58c-10 2-18 7-25 17 8 9 19 15 33 16 14-1 25-7 33-16-7-10-15-15-25-17" fill="#fff4dc" stroke-width="2.5"/>
      <path d="M43 61c-7 8-10 19-9 33" stroke-width="2.4"/>
      <path d="M53 61c7 8 10 19 9 33" stroke-width="2.4"/>
      <path d="M47 61c-1 12-1 23 0 35" stroke-width="2.2"/>
      <path d="M49 61c1 12 1 23 0 35" stroke-width="2.2"/>
      <path d="M21 58c8 7 15 11 24 13" stroke-width="2.3"/>
      <path d="M75 58c-8 7-15 11-24 13" stroke-width="2.3"/>
      <path d="M15 74c8-8 17-12 28-13" stroke-width="2.2" opacity=".75"/>
      <path d="M81 74c-8-8-17-12-28-13" stroke-width="2.2" opacity=".75"/>
    </g>
    <g fill="#c91d12" stroke="#3a160d" stroke-width="2.4">
      <ellipse cx="64" cy="46" rx="4" ry="7"/>
      <ellipse cx="66" cy="60" rx="3.6" ry="6"/>
      <ellipse cx="48" cy="86" rx="5" ry="7"/>
    </g>
    <g fill="#3a160d" opacity=".9">
      <circle cx="31" cy="48" r="1.8"/>
      <circle cx="37" cy="51" r="1.7"/>
      <circle cx="59" cy="51" r="1.7"/>
      <circle cx="65" cy="48" r="1.8"/>
      <circle cx="23" cy="65" r="1.4"/>
      <circle cx="73" cy="65" r="1.4"/>
    </g>
  </g>
</svg>
